<svg width="35" height="35" viewBox="0 0 35 35" fill="none" xmlns="http://www.w3.org/2000/svg">
<g clip-path="url(#clip0)">
<path d="M17.5 35C12.8256 35 8.43097 33.1797 5.12559 29.8744C1.82034 26.569 0 22.1744 0 17.5C0 12.8256 1.82034 8.43097 5.12559 5.12559C8.43097 1.82034 12.8256 0 17.5 0C22.1744 0 26.569 1.82034 29.8744 5.12559C33.1797 8.43097 35 12.8256 35 17.5C35 22.1744 33.1797 26.569 29.8744 29.8744C26.569 33.1797 22.1744 35 17.5 35ZM17.5 2.73438C9.35819 2.73438 2.73438 9.35819 2.73438 17.5C2.73438 25.6418 9.35819 32.2656 17.5 32.2656C25.6418 32.2656 32.2656 25.6418 32.2656 17.5C32.2656 9.35819 25.6418 2.73438 17.5 2.73438ZM24.3274 24.2172C24.2257 24.0573 21.7864 20.3027 17.4318 20.3027C13.0771 20.3027 10.6379 24.0573 10.5362 24.2172C10.1308 24.8542 10.3186 25.6992 10.9556 26.1046C11.5927 26.51 12.4377 26.3223 12.843 25.6851C12.8599 25.6587 14.5614 23.0371 17.4318 23.0371C20.3021 23.0371 22.0037 25.6587 22.0205 25.6851C22.4259 26.3222 23.2709 26.51 23.9079 26.1046C24.545 25.6992 24.7328 24.8542 24.3274 24.2172ZM9.74634 10.6071C8.99849 10.5099 8.31175 11.0381 8.21447 11.7869C8.11727 12.5357 8.64548 13.2215 9.39429 13.3187C10.4216 13.4521 11.1335 13.7149 11.6561 14.1591C11.1984 14.4658 10.8971 14.9875 10.8971 15.5798C10.8971 16.5236 11.6622 17.2888 12.6061 17.2888C14.0137 17.2888 14.7719 15.9277 14.7719 14.6128C14.7719 13.8275 14.4657 13.0894 13.9101 12.5345C12.9259 11.512 11.5434 10.8404 9.74634 10.6071ZM26.7855 11.7869C26.6883 11.0381 26.0024 10.5102 25.2537 10.6071C23.4566 10.8405 22.0741 11.5119 21.09 12.5344C20.5344 13.0894 20.2282 13.8275 20.2282 14.6128C20.2282 16.082 20.9653 17.2888 22.394 17.2888C23.3378 17.2888 24.103 16.5236 24.103 15.5798C24.103 14.9875 23.8016 14.4658 23.344 14.1591C23.8666 13.7149 24.5785 13.4521 25.6058 13.3187C26.3545 13.2215 26.8827 12.5356 26.7855 11.7869Z" fill="black" fill-opacity="0.5"/>
</g>
<defs>
<clipPath id="clip0">
<rect width="35" height="35" fill="white"/>
</clipPath>
</defs>
</svg>
