<svg width="35" height="35" viewBox="0 0 35 35" fill="none" xmlns="http://www.w3.org/2000/svg">
<g clip-path="url(#clip0)">
<path d="M34.9415 21.3419L34.9468 21.3402L29.2004 8.80214L30.594 8.10856L30.0725 7.0644L28.7139 7.74106L28.5302 7.34032C28.3959 7.04749 28.0497 6.91894 27.7568 7.05317C27.6298 7.11143 27.5279 7.2133 27.4697 7.34032L27.3058 7.69848C26.317 7.23926 25.2401 7.00097 24.15 7.00024H19.25V5.83358H20.4167V4.66692H19.4139L19.8333 2.98869C20.1553 1.70004 19.3718 0.394336 18.0831 0.0722656C16.7945 -0.249732 15.4888 0.533824 15.1667 1.82247C15.071 2.20528 15.071 2.60581 15.1667 2.98862L15.5861 4.66685H14.5834V5.83351H15.75V7.00016H10.853C9.76172 7.00104 8.68373 7.23991 7.69426 7.70016L7.53035 7.34199C7.39611 7.04916 7.04983 6.92061 6.757 7.05485C6.62998 7.11311 6.52812 7.21498 6.46986 7.34199L6.28611 7.74274L4.92754 7.06316L4.40604 8.10849L5.79961 8.80498L0.0532432 21.3402C0.017806 21.4164 -0.000277156 21.4994 0.000160341 21.5834C0.0027124 23.8375 1.82941 25.6642 4.08346 25.6667H9.91674C12.1708 25.6642 13.9975 23.8375 14 21.5834C13.9986 21.4997 13.9787 21.4172 13.9417 21.3419L8.17959 8.75664C9.01718 8.36785 9.92958 8.1666 10.853 8.16689H15.75V29.5085L13.7585 31.5H11.6667C10.0567 31.5019 8.75198 32.8067 8.75009 34.4167C8.75009 34.7388 9.01127 35 9.33342 35H25.6666C25.9888 35 26.2499 34.7388 26.2499 34.4167C26.248 32.8067 24.9433 31.5019 23.3333 31.5H21.2415L19.25 29.5085V8.16689H24.15C25.0734 8.1666 25.9858 8.36785 26.8234 8.75664L21.0531 21.3402C21.0176 21.4164 20.9995 21.4994 21 21.5834C21.0025 23.8375 22.8292 25.6642 25.0833 25.6667H30.9166C33.1706 25.6642 34.9973 23.8375 34.9999 21.5834C34.9985 21.4997 34.9786 21.4172 34.9415 21.3419ZM9.91674 24.5001H4.08346C2.69791 24.4986 1.50405 23.524 1.22515 22.1668H12.7751C12.4962 23.524 11.3023 24.4986 9.91674 24.5001ZM12.5079 21.0001H1.49231L6.85077 9.30963C6.94862 9.33588 7.05158 9.33588 7.14943 9.30963L12.5079 21.0001ZM16.5241 1.64295C16.9784 1.10395 17.7836 1.03534 18.3226 1.48961C18.3779 1.53627 18.4293 1.58761 18.4759 1.64295C18.7119 1.94307 18.7952 2.33565 18.7017 2.70577L18.2111 4.66692H16.7889L16.2984 2.70577C16.2048 2.33565 16.2882 1.94307 16.5241 1.64295ZM16.9167 7.00024V5.83358H18.0833V7.00024H16.9167ZM18.0833 8.16689V29.1667H16.9167V8.16689H18.0833ZM23.3333 32.6667C24.0747 32.6676 24.7354 33.1347 24.9835 33.8333H10.0165C10.2646 33.1347 10.9253 32.6676 11.6667 32.6667H23.3333ZM19.5918 31.5H15.4082L16.5749 30.3334H18.4252L19.5918 31.5ZM27.8494 9.31138C27.9457 9.34529 28.0514 9.34091 28.1446 9.29913L33.5077 21.0001H22.4921L27.8494 9.31138ZM30.9166 24.5001H25.0833C23.6977 24.4986 22.5039 23.524 22.225 22.1668H33.7749C33.496 23.524 32.3021 24.4986 30.9166 24.5001Z" fill="black" fill-opacity="0.5"/>
</g>
<defs>
<clipPath id="clip0">
<rect width="35" height="35" fill="white"/>
</clipPath>
</defs>
</svg>
