<svg width="35" height="35" viewBox="0 0 35 35" fill="none" xmlns="http://www.w3.org/2000/svg">
<path d="M17.3815 22.6706L14.2398 20.6109L18.0724 13.2693C18.1744 13.0738 18.1759 12.8411 18.0763 12.6443C17.9767 12.4475 17.7883 12.3109 17.5704 12.2774L14.3268 11.7784L15.8746 6.0516C15.9392 5.8129 15.8698 5.55793 15.6931 5.38492C14.3542 4.07357 12.6654 3.21371 10.8095 2.89845C8.99654 2.5903 7.15508 2.8197 5.48472 3.56157C5.13966 3.71483 4.98421 4.11875 5.1374 4.46375C5.29066 4.80867 5.69471 4.96432 6.03957 4.811C8.84567 3.56472 12.1731 4.08546 14.4474 6.09275L12.8078 12.1594C12.757 12.3472 12.7888 12.5477 12.8948 12.7107C13.0009 12.8737 13.1715 12.9838 13.3637 13.0134L16.4185 13.4833L12.7415 20.5269C12.579 20.8383 12.6789 21.2223 12.9728 21.4149L16.2749 23.5797L15.3972 30.4918C12.5876 28.9029 8.55031 25.6444 5.4355 21.5726C3.26026 18.729 -0.0710913 13.2781 2.05842 8.71963C2.21817 8.37757 2.07045 7.97078 1.72839 7.81103C1.3862 7.65121 0.979548 7.799 0.819731 8.14106C-0.165013 10.2491 -0.2629 12.6691 0.528805 15.3338C1.19767 17.5849 2.48325 19.9635 4.34966 22.4034C7.93127 27.0853 12.7196 30.7488 15.6528 32.1713C15.7471 32.217 15.8491 32.2398 15.9511 32.2398C16.0632 32.2398 16.1752 32.2122 16.2767 32.1573C16.4702 32.0524 16.6015 31.8607 16.6292 31.6423L17.6849 23.3285C17.7178 23.0692 17.6001 22.8139 17.3815 22.6706Z" fill="black" fill-opacity="0.5"/>
<path d="M32.2553 5.44159C28.6689 1.86647 22.8332 1.86647 19.2466 5.44159C19.112 5.57578 18.966 5.69437 18.8125 5.79411C18.6733 5.88461 18.5718 6.02269 18.5269 6.18258L17.6284 9.38474C17.5752 9.57416 17.6063 9.77731 17.7136 9.94219C17.8208 10.1071 17.994 10.2178 18.1887 10.2459L21.5182 10.7273L17.5691 18.8577C17.4265 19.1513 17.5114 19.5047 17.7717 19.7016L20.7329 21.9414L18.5638 31.3108C18.504 31.569 18.599 31.8385 18.8073 32.0024C18.9302 32.099 19.0795 32.1486 19.23 32.1486C19.3346 32.1486 19.4397 32.1246 19.5368 32.0758C22.3461 30.6636 25.8456 27.8625 28.6695 24.7657C31.108 22.0915 34.1608 17.9934 34.8564 13.6551C35.3721 10.4395 34.4969 7.6761 32.2553 5.44159ZM33.5066 13.4386C32.4398 20.0912 25.0353 27.1544 20.2454 30.1091L22.1649 21.8178C22.2258 21.555 22.1264 21.2811 21.9113 21.1184L19.0443 18.9499L23.1568 10.4832C23.2521 10.287 23.248 10.0571 23.1458 9.86433C23.0437 9.67157 22.8556 9.53923 22.6397 9.50806L19.1552 9.00427L19.7775 6.78664C19.9296 6.67242 20.0751 6.54623 20.2118 6.40986C23.2662 3.36519 28.236 3.36519 31.2902 6.40986C33.2029 8.3166 33.9487 10.6814 33.5066 13.4386Z" fill="black" fill-opacity="0.5"/>
<path d="M3.22522 6.60938C3.6027 6.60938 3.90881 6.30334 3.90881 5.92579C3.90881 5.54824 3.6027 5.2422 3.22522 5.2422H3.22467C2.84719 5.2422 2.54135 5.54824 2.54135 5.92579C2.54135 6.30334 2.84767 6.60938 3.22522 6.60938Z" fill="black" fill-opacity="0.5"/>
</svg>
