<svg width="29" height="35" viewBox="0 0 29 35" fill="none" xmlns="http://www.w3.org/2000/svg">
<path d="M26.9367 13.705C25.6951 12.7103 23.7525 12.1896 21.3426 12.1496C23.2719 11.1216 24.6403 9.89328 25.2879 8.55151C25.7886 7.59215 25.8132 6.45423 25.3546 5.47411C24.9077 4.48046 24.0576 3.72504 23.0182 3.39803C22.2554 3.1739 21.4509 3.13051 20.6684 3.27119C20.4465 2.50143 20.0462 1.79474 19.5002 1.20847C18.7701 0.42752 17.7455 -0.0108923 16.6765 0.000205701C15.5921 0.0101355 14.5747 0.526234 13.9262 1.39538C12.9983 2.55024 12.4843 4.31925 12.3841 6.50213C11.2894 4.33927 9.98097 2.80391 8.54574 2.13636C7.59215 1.63578 6.46015 1.60616 5.48169 2.05626C4.48804 2.50318 3.73263 3.3533 3.40561 4.39268C3.18207 5.15326 3.13859 5.95549 3.27878 6.73577C2.50993 6.95106 1.80158 7.34182 1.20938 7.87728C0.414494 8.62001 -0.0251702 9.6669 0.00111456 10.7544C0.0141318 11.8294 0.524389 12.8377 1.38294 13.4847C2.62458 14.4793 4.56715 15 6.977 15.0334C5.04778 16.0614 3.67931 17.2897 3.03846 18.6315C2.53563 19.5898 2.50843 20.7278 2.96503 21.7089C3.41204 22.6986 4.25924 23.4512 5.29478 23.7783C5.75764 23.9195 6.23936 23.9893 6.72333 23.9852C7.03658 23.9846 7.34916 23.9578 7.6579 23.9051C7.86918 24.6741 8.25786 25.3829 8.79273 25.9745C9.53071 26.7642 10.5692 27.2033 11.6498 27.1828C12.7342 27.1729 13.7516 26.6568 14.4001 25.7876C14.6935 25.4105 14.9379 24.9978 15.1278 24.5593C15.1262 27.7938 14.7771 31.0188 14.0864 34.1787C14.0014 34.5374 14.2235 34.8972 14.5822 34.9821C14.6385 34.9954 14.6962 35.0014 14.7539 34.9998H17.2773C17.5468 34.9985 17.789 34.8352 17.8914 34.5859C19.3534 31.0212 18.9795 26.9825 18.3587 24.0987C18.7827 24.5014 19.2641 24.8389 19.7873 25.1C20.3 25.3543 20.8638 25.489 21.4361 25.4939C21.9231 25.4819 22.4016 25.3634 22.838 25.1468C23.8329 24.708 24.5932 23.8652 24.9274 22.8304C25.1523 22.0677 25.1957 21.2631 25.0542 20.4806C25.823 20.2687 26.5316 19.8801 27.1236 19.3458C27.9185 18.603 28.3582 17.5562 28.3319 16.4686C28.3261 15.3796 27.8095 14.3563 26.9367 13.705ZM2.21738 12.4567L2.2374 12.4633C1.68601 12.067 1.3544 11.4334 1.34289 10.7544C1.34289 8.43802 3.81949 7.97741 4.07984 7.93736C4.20617 7.95372 4.33451 7.93043 4.44699 7.87061C4.72185 7.70981 4.84485 7.3772 4.74071 7.07622V7.02949C4.74071 7.02949 4.74071 7.02949 4.74071 6.98277C4.74071 6.93604 3.89292 4.31257 6.07581 3.27119C6.69346 2.98824 7.4084 3.01302 8.00502 3.33795C9.92756 4.26584 11.6899 7.26314 12.7847 11.4353C12.8581 11.8358 12.9315 12.2364 13.025 12.6436C13.0569 12.7934 13.1394 12.9278 13.2586 13.0241C13.123 12.9543 12.9675 12.9331 12.8181 12.964C12.4042 13.0641 12.0036 13.1709 11.6098 13.2778C7.34415 14.0855 3.88625 13.7918 2.21738 12.4567ZM14.5537 14.0588C14.202 14.1295 13.9691 14.4657 14.0263 14.8198L14.073 15.0468C14.0569 15.1305 14.0569 15.2166 14.073 15.3004C14.1331 15.5474 14.1932 15.7811 14.2533 16.0147C14.5182 17.4432 14.6412 18.8944 14.6204 20.3471C14.567 22.3497 14.1465 23.9585 13.3654 24.9398C12.9683 25.4904 12.3352 25.8218 11.6565 25.8343C9.36015 25.8343 8.89954 23.3778 8.85281 23.0974C8.86875 22.9711 8.84547 22.8429 8.78606 22.7302C8.62927 22.4621 8.30826 22.3376 8.0117 22.4298H7.93159C7.93159 22.4298 5.2614 23.2776 4.21335 21.0947C3.92939 20.4773 3.95409 19.7619 4.2801 19.1655C5.18129 17.2964 8.03173 15.5875 12.017 14.4927L12.6845 14.3659C12.7686 14.3457 12.8479 14.3094 12.9182 14.259L13.1452 14.2056C13.502 14.1199 13.7227 13.762 13.6391 13.4046C13.5986 13.2499 13.5039 13.1149 13.3721 13.0241C13.4692 13.0819 13.5796 13.114 13.6925 13.1175H13.8327C14.1919 13.0378 14.4187 12.6825 14.3401 12.3232L14.2466 12.1496C14.2628 12.0658 14.2628 11.9797 14.2466 11.8959C14.1932 11.6556 14.1331 11.422 14.073 11.195C13.3588 7.15633 13.6725 3.85196 14.9609 2.24985C15.3509 1.69545 15.9789 1.35666 16.6565 1.3353C18.9528 1.3353 19.4134 3.79188 19.4602 4.07225C19.4442 4.19859 19.4675 4.32676 19.5269 4.4394C19.6871 4.7111 20.0156 4.83359 20.3146 4.73313H20.3881C20.3881 4.73313 23.0582 3.88534 24.0996 6.06822C24.3836 6.68571 24.3589 7.40107 24.0329 7.99744C23.1384 9.85323 20.3079 11.5621 16.3494 12.6703L15.6885 12.8171C15.6072 12.8361 15.5303 12.87 15.4615 12.9173L15.2346 12.9774C14.8906 13.0601 14.671 13.3969 14.7339 13.745L14.7539 13.7517C14.7887 13.8967 14.8708 14.026 14.9876 14.1189C14.8538 14.0506 14.701 14.0295 14.5537 14.0588ZM16.83 33.6447H15.5617C15.9956 31.5018 17.0169 25.6341 16.1625 21.2416C16.7766 22.9973 18.5456 28.8383 16.83 33.6447ZM24.2532 19.2723C24.129 19.2582 24.0035 19.2814 23.8927 19.3391C23.6048 19.5022 23.4799 19.8515 23.599 20.1602V20.2069C23.599 20.2069 23.599 20.2069 23.599 20.2536C23.599 20.3004 24.4468 22.9238 22.2639 23.9652C21.6462 24.2482 20.9313 24.2234 20.3347 23.8985C19.1931 23.3511 18.1117 22.076 17.1905 20.2536C16.5007 18.8404 15.9594 17.3594 15.575 15.8345C15.5016 15.4339 15.4282 15.0267 15.3347 14.6128C15.2988 14.4542 15.2062 14.3142 15.0744 14.219C15.1702 14.2734 15.278 14.3032 15.3881 14.3058H15.5416C15.9489 14.2123 16.3494 14.1055 16.7366 13.9987C20.9688 13.1843 24.4401 13.4713 26.0822 14.8064C26.6336 15.2028 26.9652 15.8364 26.9768 16.5154C27.0035 18.7784 24.5002 19.239 24.2532 19.2723Z" fill="black" fill-opacity="0.5"/>
</svg>
