<svg width="40" height="40" viewBox="0 0 40 40" fill="none" xmlns="http://www.w3.org/2000/svg">
<g clip-path="url(#clip0)">
<path d="M19.0851 33.5775C18.7866 33.7023 18.6459 34.0454 18.7708 34.3436C18.8957 34.6419 19.2391 34.7824 19.5375 34.6577C20.2274 34.369 21.2558 34.6026 21.6951 35.1472C21.8109 35.2907 21.9805 35.3653 22.1517 35.3653C22.2807 35.3653 22.4106 35.3229 22.519 35.2357C22.771 35.0327 22.8106 34.6642 22.6076 34.4124C21.8401 33.4607 20.2599 33.0863 19.0851 33.5775Z" fill="black" fill-opacity="0.5"/>
<path d="M28.7162 8.73045C29.0398 8.73045 29.3022 8.46834 29.3022 8.14498V7.5824C29.3022 7.11029 29.6929 6.72607 30.1731 6.72607C30.6522 6.72607 31.0418 7.11022 31.0418 7.5824V8.14498C31.0418 8.29592 30.8237 8.55412 30.6313 8.78193C30.3064 9.16639 29.9022 9.6449 29.9022 10.2822V11.1681C29.9022 11.4915 30.1645 11.7536 30.4882 11.7536C30.8118 11.7536 31.0741 11.4915 31.0741 11.1681V10.2822C31.0741 10.0731 31.3042 9.80076 31.5268 9.53732C31.8487 9.15615 32.2137 8.7242 32.2137 8.14498V7.5824C32.2137 6.46451 31.2983 5.55514 30.1732 5.55514C29.0468 5.55514 28.1304 6.46459 28.1304 7.5824V8.14498C28.1304 8.46834 28.3926 8.73045 28.7162 8.73045Z" fill="black" fill-opacity="0.5"/>
<path d="M30.4904 12.6933C30.1668 12.6933 29.9045 12.9554 29.9045 13.2787V13.2809C29.9045 13.6043 30.1667 13.8654 30.4904 13.8654C30.8141 13.8654 31.0764 13.6021 31.0764 13.2787C31.0763 12.9554 30.814 12.6933 30.4904 12.6933Z" fill="black" fill-opacity="0.5"/>
<path d="M13.2206 6.26676V5.56692C13.2206 4.25122 12.1438 3.18082 10.8204 3.18082C9.4956 3.18082 8.41779 4.25122 8.41779 5.56692V6.26676C8.41779 6.5902 8.68013 6.85223 9.00372 6.85223C9.32732 6.85223 9.58966 6.59012 9.58966 6.26676V5.56692C9.58966 4.89692 10.1418 4.35184 10.8204 4.35184C11.4977 4.35184 12.0488 4.89692 12.0488 5.56692V6.26676C12.0488 6.50715 11.7715 6.83559 11.5034 7.15309C11.0929 7.63926 10.6277 8.1902 10.6277 8.9334V10.0363C10.6277 10.3597 10.8901 10.6218 11.2136 10.6218C11.5372 10.6218 11.7996 10.3597 11.7996 10.0363V8.9334C11.7996 8.61825 12.0908 8.2734 12.3991 7.90825C12.784 7.45215 13.2206 6.93512 13.2206 6.26676Z" fill="black" fill-opacity="0.5"/>
<path d="M11.2159 12.0842C10.8923 12.0842 10.6299 12.3463 10.6299 12.6696V12.6741C10.6299 12.9975 10.8923 13.2574 11.2159 13.2574C11.5395 13.2574 11.8018 12.9931 11.8018 12.6696C11.8018 12.3462 11.5394 12.0842 11.2159 12.0842Z" fill="black" fill-opacity="0.5"/>
<path d="M23.9701 23.5378C24.9683 23.2098 26.4408 23.4992 27.0794 24.5393C27.1901 24.7193 27.3824 24.8186 27.5794 24.8186C27.6839 24.8186 27.7897 24.7907 27.8853 24.732C28.1611 24.5629 28.2475 24.2023 28.0783 23.9267C27.1277 22.3787 25.0569 21.9476 23.6039 22.4254C23.2965 22.5265 23.1293 22.8574 23.2304 23.1646C23.3314 23.4717 23.6623 23.6387 23.9701 23.5378Z" fill="black" fill-opacity="0.5"/>
<path d="M35.0621 22.2979H33.7331C33.6696 20.0628 33.2425 18.0096 32.4705 16.1915C33.4767 15.8668 34.3899 15.3109 35.1548 14.5529C36.4406 13.2781 37.1484 11.584 37.1484 9.78146C37.1484 7.98044 36.4399 6.28794 35.1556 5.01544C32.5072 2.38849 28.1964 2.38849 25.5466 5.01544C24.556 5.99677 23.9084 7.22396 23.6623 8.57997C22.6474 8.32075 21.592 8.17872 20.514 8.16075H20.4952C20.1671 8.16622 19.8413 8.18341 19.5179 8.21146C19.5171 7.84146 19.4906 7.47138 19.4382 7.10442C19.1843 5.31669 18.3688 3.69521 17.0781 2.41497C13.8299 -0.805263 8.54408 -0.805263 5.29423 2.41575C4.82392 2.88419 4.4122 3.40255 4.07009 3.95599C3.89978 4.23075 3.98494 4.59146 4.26072 4.76161C4.53572 4.93177 4.89665 4.84669 5.06697 4.57114C5.3615 4.09567 5.71619 3.64919 6.1208 3.2463C8.91447 0.477237 13.4596 0.477237 16.2532 3.2463C17.6649 4.64607 18.3875 6.49466 18.3578 8.36278C18.3516 8.77028 18.3094 9.17935 18.2305 9.5845C18.0961 10.2754 17.8563 10.9561 17.5063 11.6049C17.4422 11.7236 17.4211 11.8618 17.4469 11.9944L18.0414 15.0515L14.9477 14.4614C14.8165 14.4364 14.6813 14.4567 14.5634 14.5191C13.2322 15.224 11.7345 15.47 10.2924 15.2873C9.88697 15.2374 9.4854 15.153 9.09408 15.0343C7.99251 14.7041 6.96525 14.1124 6.12072 13.2763C4.41064 11.5815 3.6833 9.16528 4.1747 6.8131C4.24033 6.49614 4.0372 6.18622 3.7208 6.11989C3.40439 6.05435 3.09345 6.25732 3.02705 6.57349C2.45439 9.31599 3.30205 12.1318 5.29572 14.1077C6.23009 15.0336 7.34486 15.712 8.5729 16.1125C7.77915 17.9499 7.3404 20.0303 7.27595 22.2976H5.94697C4.9154 22.2976 4.07626 23.1326 4.07626 24.1589V25.4191C4.07626 26.2954 4.51205 27.2275 5.27197 27.9765C5.95408 28.6487 6.80744 29.0871 7.62978 29.2038C8.03892 30.6643 8.78587 32.1728 9.82939 33.6156C9.94392 33.774 10.1231 33.8582 10.3048 33.8582C10.4237 33.8582 10.5437 33.822 10.6475 33.7472C10.9098 33.5577 10.9688 33.1917 10.7792 32.9296C9.27009 30.843 8.439 28.6374 8.439 26.719V23.4143C10.88 23.1115 11.9726 22.0084 12.862 21.1102C13.6917 20.271 14.1924 19.7651 15.6002 20.1234C16.2385 20.2866 16.779 20.4294 17.2563 20.5559C18.8508 20.9775 19.6516 21.1898 20.5046 21.1898C21.3585 21.1898 22.1577 20.9783 23.749 20.5567C24.2271 20.4302 24.7693 20.2874 25.4091 20.1242C26.8176 19.7643 27.3184 20.2709 28.1488 21.1102C29.0374 22.0084 30.1293 23.1115 32.5702 23.4143V26.719C32.5702 31.0717 28.3181 36.4512 23.47 38.2314C22.3661 38.6388 21.4238 38.8286 20.5045 38.8286C19.5853 38.8286 18.6431 38.6388 17.5382 38.2311C15.7023 37.5565 13.9145 36.3721 12.3681 34.8058C12.1408 34.5756 11.7699 34.5732 11.5395 34.8003C11.3092 35.0274 11.3067 35.3981 11.5339 35.6283C13.2006 37.3165 15.137 38.5965 17.1331 39.3299C18.3711 39.7868 19.4424 39.9997 20.5045 39.9997C21.5667 39.9997 22.638 39.7868 23.8751 39.3303C26.4734 38.3761 28.9448 36.5107 30.834 34.0772C32.0446 32.5179 32.9169 30.8292 33.3747 29.2044C34.1996 29.0887 35.0559 28.6497 35.7398 27.9758C36.4994 27.227 36.9351 26.2951 36.9351 25.419V24.1588C36.9351 23.1329 36.0949 22.2979 35.0621 22.2979ZM6.09478 27.1429C5.55673 26.6125 5.24806 25.9843 5.24806 25.4193V24.1591C5.24806 23.7786 5.56158 23.4689 5.94697 23.4689H7.26704V26.7193C7.26704 27.1172 7.29806 27.5247 7.35861 27.9391C6.91697 27.7894 6.47017 27.5129 6.09478 27.1429ZM24.7849 8.92044C24.9645 7.78692 25.5013 6.7088 26.3715 5.84692C28.5667 3.67122 32.1369 3.67122 34.3298 5.84692C35.3915 6.89771 35.9766 8.29591 35.9766 9.78231C35.9766 11.2695 35.3922 12.6684 34.3298 13.7216C33.6493 14.3961 32.8353 14.8692 31.965 15.1291C31.5697 15.247 31.1634 15.3211 30.7526 15.35C29.7213 15.4226 28.6644 15.2111 27.6964 14.699C27.612 14.6536 27.5175 14.6303 27.4222 14.6303C27.3855 14.6303 27.3488 14.6342 27.3128 14.6412L25.0027 15.0808L25.4457 12.7981C25.4715 12.6654 25.4504 12.528 25.3863 12.4093C25.0004 11.6927 24.784 10.9261 24.7309 10.1586C24.7013 9.74325 24.72 9.32794 24.7849 8.92044ZM28.9816 20.2869C28.0956 19.3908 27.1793 18.464 25.1192 18.9894C24.4739 19.1541 23.9295 19.2986 23.4498 19.4251C21.9553 19.8208 21.2061 20.0191 20.5045 20.0191C19.8038 20.0191 19.0531 19.82 17.5554 19.4243C17.0765 19.297 16.5335 19.1534 15.8899 18.9894C13.8313 18.464 12.9149 19.3907 12.0283 20.2869C11.2525 21.0715 10.3823 21.9505 8.44954 22.2315C8.52376 19.9825 8.9847 18.0417 9.72447 16.3984C9.8229 16.4156 9.92212 16.4312 10.0213 16.4452C10.4034 16.4983 10.7885 16.524 11.1736 16.524C12.4727 16.524 13.7688 16.225 14.9258 15.6489L18.3358 16.3C18.5389 16.339 18.8788 16.4046 19.1389 16.1447C19.396 15.8878 19.3366 15.5771 19.2874 15.3211L18.6366 11.972C19.0444 11.1656 19.3139 10.292 19.4389 9.39732C19.7944 9.35982 20.1506 9.33802 20.5045 9.33177C21.5202 9.34974 22.549 9.49411 23.5552 9.7713C23.5545 10.8096 23.7943 11.8455 24.2568 12.7745L23.7435 15.421C23.7037 15.6255 23.6435 15.9347 23.8935 16.1853C24.1451 16.4367 24.4662 16.375 24.6388 16.3422L27.3356 15.8286C28.2708 16.2868 29.3152 16.525 30.3613 16.525C30.6754 16.525 30.9902 16.5031 31.3019 16.4602C31.305 16.4594 31.3081 16.4594 31.3113 16.4586C32.0355 18.0887 32.4862 20.0099 32.5596 22.2317C30.6276 21.9506 29.7573 21.0715 28.9816 20.2869ZM35.7632 25.4193C35.7632 25.9842 35.4547 26.6122 34.9168 27.1423C34.5403 27.5135 34.091 27.7912 33.6477 27.9408C33.7095 27.5245 33.742 27.1161 33.742 26.7193V23.4689H35.0621C35.4487 23.4689 35.7632 23.7786 35.7632 24.1591V25.4193Z" fill="black" fill-opacity="0.5"/>
<path d="M16.8444 22.4255C15.3913 21.9479 13.3205 22.3789 12.37 23.9268C12.2008 24.2024 12.2871 24.5629 12.563 24.7321C12.6586 24.7907 12.7644 24.8186 12.8688 24.8186C13.0659 24.8186 13.2582 24.7193 13.3688 24.5393C14.0073 23.4993 15.4798 23.2098 16.4783 23.5379C16.7855 23.6392 17.1168 23.4718 17.2179 23.1647C17.319 22.8575 17.1518 22.5265 16.8444 22.4255Z" fill="black" fill-opacity="0.5"/>
</g>
<defs>
<clipPath id="clip0">
<rect width="40" height="40" fill="white"/>
</clipPath>
</defs>
</svg>
