<svg width="35" height="35" viewBox="0 0 35 35" fill="none" xmlns="http://www.w3.org/2000/svg">
<g clip-path="url(#clip0)">
<path d="M2.80406 15.2633C2.98622 15.3362 3.19748 15.3362 3.37965 15.2487L9.06977 12.6623C9.43403 12.4874 9.58703 12.0503 9.41217 11.686C9.24463 11.3363 8.82934 11.176 8.47232 11.3363L4.48704 13.1505C6.3886 7.46033 11.6853 3.65721 17.7834 3.65721C24.1729 3.65721 29.761 7.92664 31.3711 14.0393C31.4731 14.4254 31.8738 14.6586 32.26 14.5565C32.6461 14.4546 32.8793 14.0538 32.7772 13.6677C30.9995 6.92121 24.8358 2.2001 17.7833 2.2001C11.0587 2.2001 5.20826 6.39665 3.09544 12.6769L1.41976 8.48768C1.29592 8.1088 0.880641 7.89754 0.501764 8.02137C0.122887 8.1452 -0.0883744 8.56049 0.0354591 8.93936C0.0427675 8.96853 0.057316 8.99763 0.0718646 9.02679L2.39601 14.8553C2.46889 15.0375 2.61458 15.1905 2.80406 15.2633Z" fill="black" fill-opacity="0.5"/>
<path d="M34.9557 26.0169C34.9484 26.0024 34.9412 25.9877 34.9412 25.9732L32.617 20.1447C32.5441 19.9625 32.3984 19.8095 32.209 19.7367C32.0269 19.6638 31.8156 19.6711 31.6334 19.7513L25.9433 22.3377C25.5717 22.4907 25.3969 22.9205 25.5499 23.2921C25.7029 23.6637 26.1327 23.8385 26.5043 23.6855C26.5188 23.6782 26.5335 23.671 26.548 23.6637L30.5333 21.8495C28.6172 27.5397 23.3132 31.3428 17.2224 31.3428C10.8328 31.3428 5.24474 27.0734 3.63463 20.9607C3.53265 20.5746 3.13192 20.3414 2.7458 20.4434C2.35968 20.5454 2.1265 20.9462 2.22854 21.3323C3.99896 28.0861 10.1699 32.7999 17.2224 32.7999C23.9471 32.7999 29.7902 28.6033 31.9103 22.3231L33.586 26.5123C33.7245 26.8912 34.1398 27.0879 34.5186 26.9495C34.8974 26.8111 35.0941 26.3958 34.9557 26.0169Z" fill="black" fill-opacity="0.5"/>
</g>
<defs>
<clipPath id="clip0">
<rect width="35" height="35" fill="white"/>
</clipPath>
</defs>
</svg>
