<svg width="35" height="35" viewBox="0 0 35 35" fill="none" xmlns="http://www.w3.org/2000/svg">
<g clip-path="url(#clip0)">
<path d="M7.7795 16.8851C7.60067 16.8851 7.42198 16.9549 7.28786 17.0937C7.0255 17.3651 7.03288 17.7979 7.3044 18.0603C8.19834 18.9242 9.65282 18.9242 10.5468 18.0603C10.8183 17.7979 10.8257 17.3651 10.5633 17.0937C10.3009 16.8222 9.86815 16.8148 9.5967 17.0772C9.2266 17.4348 8.62456 17.4348 8.25446 17.0772C8.12184 16.9489 7.9506 16.8851 7.7795 16.8851Z" fill="black" fill-opacity="0.5"/>
<path d="M34.9798 20.6034C35.0658 20.2566 34.87 19.902 34.5307 19.79C32.9114 19.255 30.9811 18.0489 30.9811 15.3408V13.9069C30.9811 11.6955 30.4745 9.96495 29.4755 8.76333C28.5086 7.6004 27.103 6.98571 25.4106 6.98571C23.7893 6.98571 22.4096 7.598 21.4205 8.75649C20.3867 9.96755 19.8401 11.7485 19.8401 13.9069V15.3408C19.8401 16.8406 19.251 18.0323 18.0884 18.8873C17.8111 18.8318 17.5246 18.8022 17.2313 18.8022C15.3617 18.8022 13.762 19.9814 13.1379 21.635C12.9554 21.5838 11.9991 21.3261 11.7167 21.2434V20.7886C13.5432 19.7952 14.7857 17.8586 14.7857 15.6373V12.9224C14.7857 9.69055 12.1573 7.06118 8.9265 7.06118C5.69468 7.06118 3.06537 9.69055 3.06537 12.9224V15.6373C3.06537 17.8583 4.30787 19.7945 6.1345 20.788V21.2433C5.85218 21.326 5.55892 21.4053 5.2554 21.4873C2.94014 22.1115 0.0581055 22.8881 0 26.4216V32.4126C0 32.7899 0.30625 33.0962 0.683594 33.0962H9.92708V34.0682C9.92708 34.0698 9.92681 34.0715 9.92681 34.0732C9.92681 34.4507 10.2329 34.7568 10.6104 34.7568H14.1583C14.5359 34.7568 14.8419 34.4507 14.8419 34.0732C14.8419 33.6956 14.5359 33.3896 14.1583 33.3896H11.2942V32.98C11.3024 32.4796 11.3687 32.0695 11.4877 31.7291C11.9176 30.4972 13.0305 30.1691 14.5461 29.722C14.6171 29.7011 14.6891 29.6799 14.7613 29.6585C15.1212 30.6444 16.0683 31.3501 17.1772 31.3501C18.3782 31.3501 19.3464 30.6657 19.7049 29.66C19.7753 29.6809 19.8455 29.7016 19.915 29.722C21.8496 30.2928 23.1279 30.6694 23.1669 32.98V33.3895H20.297C19.9194 33.3895 19.6134 33.6956 19.6134 34.0731C19.6134 34.4507 19.9194 34.7567 20.297 34.7567H23.8507C24.2283 34.7567 24.5343 34.4507 24.5343 34.0731C24.5343 34.0714 24.534 34.0697 24.534 34.068V33.096H33.6535C34.0311 33.096 34.3371 32.79 34.3371 32.4125V26.4325C34.3371 26.4288 34.3371 26.425 34.3371 26.4212C34.3135 24.9896 33.8263 24.0106 33.1012 23.3109C34.0853 22.8497 34.6273 22.0259 34.9798 20.6034ZM25.4106 8.35283C26.7017 8.35283 27.7156 8.785 28.4242 9.6373C29.1352 10.4925 29.5294 11.744 29.6009 13.3601C28.3348 13.5797 26.8445 13.4023 26.0206 11.773C25.7726 11.2837 25.0482 11.2831 24.8005 11.773C23.9769 13.4016 22.4874 13.5795 21.2216 13.3604C21.3798 10.2132 22.9198 8.35283 25.4106 8.35283ZM21.2073 14.7411C21.4982 14.7817 21.7813 14.8021 22.0555 14.8021C23.4338 14.8021 24.5901 14.2935 25.4106 13.3203C26.2311 14.2936 27.3873 14.8021 28.7658 14.8021C29.04 14.8021 29.323 14.7817 29.614 14.7411V15.3409C29.614 17.6587 27.7284 19.5443 25.4107 19.5443C23.093 19.5443 21.2074 17.6587 21.2074 15.3409V14.7411H21.2073ZM26.8352 20.7259V21.747C26.8352 22.5315 26.1961 23.1698 25.4106 23.1698C24.6261 23.1698 23.9879 22.5315 23.9879 21.747V20.7264C24.4422 20.8467 24.9189 20.9115 25.4106 20.9115C25.903 20.9114 26.3803 20.8465 26.8352 20.7259ZM20.5641 18.0818C21.0531 18.9432 21.7651 19.6619 22.6207 20.1596V21.2433C22.3365 21.3266 22.0419 21.406 21.7364 21.4884C21.5958 21.5262 21.4531 21.5649 21.3098 21.6042C20.9629 20.7096 20.332 19.9564 19.5279 19.4571C19.9518 19.0466 20.2985 18.5866 20.5641 18.0818ZM14.445 22.0459C14.8927 20.9467 15.9728 20.1694 17.2313 20.1694C18.6933 20.1694 19.9138 21.2213 20.1832 22.6108C19.272 22.1747 18.2584 21.9417 17.2308 21.9417C16.2027 21.9417 15.189 22.175 14.2779 22.6114C14.3155 22.4156 14.3715 22.2263 14.445 22.0459ZM4.43263 12.9224C4.43263 10.4444 6.44861 8.42837 8.92657 8.42837C11.4035 8.42837 13.4186 10.4444 13.4186 12.9224V13.6298C11.6216 13.6898 9.35689 13.4762 7.68701 12.3332C7.38644 12.1275 6.97744 12.1935 6.75691 12.4832C6.17887 13.2428 5.45296 13.4312 4.4327 13.5524V12.9224H4.43263ZM4.43263 15.6373V14.9285C5.53212 14.8055 6.5677 14.6047 7.42752 13.7809C9.29811 14.84 11.5832 15.0537 13.4185 14.9977V15.6373C13.4185 18.1143 11.4034 20.1294 8.9265 20.1294C6.44861 20.1294 4.43263 18.1143 4.43263 15.6373ZM10.3495 21.3209V21.7409C10.3495 21.7429 10.3492 21.7449 10.3492 21.747C10.3492 22.5314 9.711 23.1697 8.9265 23.1697C8.14099 23.1697 7.50189 22.5314 7.50189 21.747C7.50189 21.7455 7.50169 21.7441 7.50169 21.7426V21.3206C7.95806 21.435 8.43521 21.4966 8.9265 21.4966C9.41726 21.4966 9.89379 21.4352 10.3495 21.3209ZM14.6063 28.2775C14.4566 28.3233 14.3069 28.3677 14.1592 28.4108C12.4721 28.9084 10.5908 29.4628 10.0679 31.7289H5.02558V28.9632C5.02558 28.5856 4.71953 28.2796 4.34198 28.2796C3.96443 28.2796 3.65839 28.5856 3.65839 28.9632V31.7289H1.36719V26.4386C1.4082 24.1075 2.99824 23.5114 5.61094 22.8073C5.83099 22.7479 6.05459 22.6873 6.27703 22.6245C6.64597 23.7341 7.69392 24.5369 8.92657 24.5369C10.1584 24.5369 11.2056 23.7341 11.5743 22.6244C11.7968 22.6872 12.6621 22.9222 12.8617 22.9789C12.8583 23.0446 12.857 23.1109 12.857 23.1772V24.1438C12.857 25.5718 13.5447 26.8426 14.6063 27.641V28.2775ZM18.4877 28.7767C18.4877 28.7775 18.4876 28.7783 18.4876 28.7791C18.4876 29.6062 17.8084 29.9829 17.1773 29.9829C16.5136 29.9829 15.9735 29.4429 15.9735 28.7791C15.9735 28.7785 15.9735 28.7779 15.9735 28.7772V28.3342C16.1396 28.3841 16.3098 28.4251 16.4841 28.4545C16.7268 28.4969 16.9763 28.5188 17.2313 28.5188C17.4418 28.5188 17.649 28.5037 17.8513 28.4743C18.0687 28.4443 18.2813 28.3971 18.4877 28.3349V28.7767ZM18.8514 26.6772C17.9326 27.2897 16.5534 27.3204 15.6351 26.6915C14.8058 26.1701 14.2492 25.255 14.2263 24.2102C16.0163 23.0176 18.4454 23.0177 20.2369 24.2105C20.2141 25.245 19.6678 26.1533 18.8514 26.6772ZM32.97 31.7288H30.6788V28.9632C30.6788 28.5856 30.3728 28.2796 29.9952 28.2796C29.6177 28.2796 29.3116 28.5856 29.3116 28.9632V31.7288H24.3932C23.8697 29.4628 21.9888 28.9083 20.302 28.4108C20.1543 28.3677 20.0046 28.3233 19.8549 28.2775V27.6431C20.9179 26.844 21.6063 25.5725 21.6063 24.1438V23.1888C21.6063 23.1061 21.6035 23.0241 21.599 22.9425C21.7641 22.8969 21.9293 22.8523 22.092 22.8084C22.3137 22.7487 22.5388 22.6879 22.7629 22.6246C23.1317 23.7342 24.1788 24.537 25.4105 24.537C26.6431 24.537 27.691 23.7342 28.06 22.6247C28.2825 22.6874 28.506 22.7479 28.7261 22.8073C31.3389 23.5115 32.9291 24.1077 32.9699 26.4384V31.7288H32.97ZM31.6235 22.3322C30.8069 21.9522 29.9084 21.7099 29.0819 21.4871C28.7781 21.4052 28.4849 21.3262 28.2024 21.2434V20.1585C29.0552 19.6619 29.7652 18.9459 30.2537 18.0877C31.0308 19.5605 32.3751 20.3964 33.4843 20.8581C33.157 21.8098 32.696 22.1514 31.6235 22.3322Z" fill="black" fill-opacity="0.5"/>
<path d="M17.0727 8.91098C17.2051 9.03882 17.3763 9.10273 17.5474 9.10273C17.7186 9.10273 17.8897 9.03882 18.0222 8.91098L21.6396 5.41939C22.8352 4.26651 22.87 2.356 21.7168 1.16006C21.1598 0.583583 20.4091 0.258192 19.603 0.243837C18.8363 0.230165 18.1119 0.498749 17.5474 1.00235C16.9827 0.498681 16.2582 0.23037 15.4919 0.243837C14.6858 0.258192 13.9351 0.583651 13.3771 1.16108C12.226 2.35751 12.261 4.26781 13.455 5.41919L17.0727 8.91098ZM14.3613 2.11012C14.6648 1.796 15.0749 1.61868 15.5163 1.61082C15.5265 1.61068 15.5367 1.61055 15.547 1.61055C15.9767 1.61055 16.3805 1.77256 16.6872 2.0689L17.0728 2.44098C17.3376 2.6965 17.7573 2.6965 18.0221 2.44098L18.4082 2.06855C18.7217 1.76552 19.1364 1.60303 19.5786 1.61082C20.02 1.61868 20.4302 1.796 20.7332 2.10964C21.3627 2.7624 21.3436 3.8057 20.6905 4.4355L17.5475 7.46908L14.4043 4.43529C13.7521 3.80632 13.7333 2.76281 14.3613 2.11012Z" fill="black" fill-opacity="0.5"/>
<path d="M17.2277 33.3895C16.8502 33.3895 16.5441 33.6956 16.5441 34.0731C16.5441 34.4507 16.8502 34.7567 17.2277 34.7567H17.2316C17.6092 34.7567 17.9133 34.4507 17.9133 34.0731C17.9133 33.6956 17.6053 33.3895 17.2277 33.3895Z" fill="black" fill-opacity="0.5"/>
</g>
<defs>
<clipPath id="clip0">
<rect width="35" height="35" fill="white"/>
</clipPath>
</defs>
</svg>
