<svg width="35" height="35" viewBox="0 0 35 35" fill="none" xmlns="http://www.w3.org/2000/svg">
<g clip-path="url(#clip0)">
<path d="M0.969506 28.426C2.17114 29.4976 4.01337 29.3942 5.08736 28.1947C5.18055 28.0898 5.26733 27.979 5.35866 27.8721C5.87322 28.387 6.42143 28.8671 6.99982 29.309C5.90179 30.0727 5.24677 31.3256 5.24624 32.6632V33.2477C5.24677 34.2144 6.02943 34.9983 6.99608 35H23.9129C24.879 34.9989 25.6619 34.216 25.663 33.2498V30.1152C25.733 30.0701 25.8016 30.0233 25.8715 29.9771C25.9324 30.0431 25.9845 30.1149 26.0529 30.1761C27.2537 31.2469 29.0943 31.1443 30.1688 29.947C33.2287 26.5204 34.9436 22.1017 34.9962 17.508C34.947 12.8197 33.1184 8.32564 29.8804 4.9349C26.6486 1.6606 22.2861 -5.72404e-05 16.913 -5.72404e-05C11.4207 -0.00379564 6.29459 2.75488 3.27263 7.34083C0.250665 11.9271 -0.262565 17.7253 1.90758 22.7708C1.55563 23.3097 1.16524 23.8224 0.73906 24.3046C-0.330657 25.5081 -0.227584 27.3493 0.969506 28.426V28.426ZM6.41289 33.2477V32.6632C6.41315 31.0514 7.71786 29.744 9.32964 29.7403H9.91283C10.9932 29.7408 11.9842 30.3406 12.4859 31.2973C12.4731 31.335 12.4555 31.375 12.4445 31.4116C12.3126 31.8151 12.2456 32.2367 12.2461 32.661V33.2501C12.2483 33.4493 12.2846 33.6466 12.3537 33.8336H6.99608C6.67351 33.8325 6.41262 33.5703 6.41289 33.2477V33.2477ZM23.9129 33.8333H13.9962C13.6742 33.833 13.413 33.5719 13.4128 33.2498V32.6608C13.4128 32.355 13.4616 32.0512 13.5575 31.7606C13.5853 31.6685 13.6179 31.5777 13.6552 31.4891C14.1204 30.4265 15.1698 29.7397 16.3295 29.7387H16.913C18.1998 29.7419 19.3608 30.5125 19.8639 31.6971C19.8682 31.7088 19.8781 31.7168 19.8829 31.7283C19.8816 31.7558 19.8824 31.7833 19.885 31.8106C19.9456 32.0755 20.1812 32.2634 20.453 32.264C20.4971 32.264 20.5408 32.2589 20.5836 32.249C21.9454 31.9347 23.2605 31.445 24.4961 30.7918V33.2498C24.4958 33.5719 24.2349 33.833 23.9129 33.8333V33.8333ZM16.913 1.16659C21.9622 1.16659 26.0459 2.71029 29.0495 5.75415C32.0485 8.93526 33.7529 13.1207 33.8295 17.4919C33.7809 21.8034 32.1721 25.9514 29.3005 29.1678C28.642 29.8596 27.5589 29.9195 26.828 29.3045C26.1113 28.6575 26.0507 27.5533 26.6921 26.8315C28.8324 24.4382 30.0853 21.3823 30.2415 18.1755C30.2567 17.8538 30.0084 17.5803 29.6863 17.5648C29.3661 17.5536 29.0951 17.7998 29.0759 18.1197C28.9328 21.0594 27.7843 23.8606 25.8224 26.0545C25.1153 26.8542 24.902 27.9766 25.2657 28.9801C25.1022 29.0887 24.9396 29.2022 24.7767 29.304C23.5425 30.0498 22.2074 30.614 20.8121 30.9793C20.0653 29.5106 18.5606 28.5816 16.913 28.572H16.3295C15.0758 28.5747 13.8934 29.1544 13.1231 30.1432C12.3516 29.1539 11.1676 28.575 9.91283 28.5736H9.32964C8.94699 28.5744 8.56647 28.6292 8.19904 28.7365C2.78397 24.9372 0.457345 18.0652 2.45098 11.7578C4.44462 5.45027 10.2979 1.16365 16.913 1.16659V1.16659ZM1.61037 25.0804C1.9228 24.7292 2.21119 24.3629 2.48409 23.9901C3.06034 25.0713 3.75702 26.0841 4.56051 27.0094C4.44569 27.1458 4.3346 27.2855 4.21711 27.4177C3.55862 28.1095 2.47555 28.1696 1.74469 27.5547C1.02772 26.9068 0.967637 25.8019 1.61037 25.0804Z" fill="black" fill-opacity="0.5"/>
<path d="M9.67127 9.1137C10.3487 9.32678 11.0732 9.34067 11.7584 9.15375C12.0895 9.07231 12.4091 8.94894 12.7093 8.78712C12.9955 8.62076 13.2668 8.43037 13.5205 8.21755C13.5987 8.15533 13.6244 8.04798 13.5824 7.95719C13.5408 7.8664 13.4425 7.81594 13.3445 7.83489L13.3061 7.8421C12.9971 7.90165 12.7183 8.00633 12.4326 8.06614C12.1549 8.12729 11.8737 8.16975 11.5904 8.19245C11.0537 8.24879 10.5113 8.19538 9.99624 8.03517C8.91931 7.63703 7.93959 7.01431 7.12221 6.20815L7.11073 6.19827C7.06106 6.15475 6.98896 6.14941 6.93342 6.18492C6.87788 6.22071 6.85251 6.28853 6.87094 6.35182C7.29845 7.67361 8.34333 8.70434 9.671 9.1137H9.67127Z" fill="black" fill-opacity="0.5"/>
<path d="M16.4506 8.78711C16.7508 8.94893 17.0704 9.0723 17.4015 9.15374C18.0867 9.34066 18.8112 9.32678 19.4886 9.11369C20.8163 8.70433 21.8612 7.6736 22.2887 6.35181C22.3028 6.30267 22.2911 6.25007 22.2574 6.21162C22.2032 6.15047 22.1095 6.14459 22.0481 6.1988L22.0374 6.20815C21.22 7.01431 20.2403 7.63702 19.1636 8.03516C18.6483 8.19538 18.1059 8.24878 17.5692 8.19244C17.2862 8.16974 17.0047 8.12728 16.7273 8.06614C16.4413 8.00632 16.1625 7.90165 15.8536 7.8421L15.8151 7.83462C15.7168 7.81593 15.6188 7.86666 15.5772 7.95719C15.5355 8.04798 15.5612 8.15532 15.6391 8.21754C15.8928 8.43036 16.1644 8.62075 16.4506 8.78711V8.78711Z" fill="black" fill-opacity="0.5"/>
<path d="M9.9132 14C11.1493 13.9774 12.3341 13.5012 13.2422 12.6625C13.3934 12.5159 13.4537 12.2993 13.4003 12.0956C13.3469 11.8921 13.188 11.733 12.9843 11.6796C12.7808 11.6262 12.564 11.6865 12.4174 11.8377C11.7298 12.4598 10.8406 12.8134 9.9132 12.8334C8.98634 12.808 8.09873 12.4548 7.40793 11.8366C7.17882 11.615 6.81433 11.6182 6.58922 11.8438C6.36412 12.0694 6.36198 12.4339 6.58415 12.6625C7.49231 13.5012 8.67712 13.9774 9.9132 14Z" fill="black" fill-opacity="0.5"/>
<path d="M21.7509 11.8377C21.063 12.4598 20.1741 12.8134 19.2467 12.8334C18.3198 12.808 17.4319 12.4548 16.7411 11.8366C16.5123 11.615 16.1475 11.6182 15.9227 11.8438C15.6976 12.0694 15.6952 12.4339 15.9176 12.6625C17.7785 14.4457 20.7145 14.4457 22.5757 12.6625C22.7268 12.5159 22.7872 12.2993 22.7338 12.0956C22.6804 11.8921 22.5212 11.733 22.3178 11.6796C22.114 11.6262 21.8975 11.6865 21.7509 11.8377Z" fill="black" fill-opacity="0.5"/>
<path d="M9.4058 25.3971C9.96415 26.0794 10.8603 26.3875 11.7201 26.1931C12.58 25.9987 13.2564 25.3349 13.4668 24.4788C13.6775 23.6227 13.3861 22.7209 12.7146 22.1498L13.2224 20.4168H15.9507L16.4586 22.1498C15.7883 22.7212 15.4981 23.6222 15.7087 24.4775C15.9194 25.3328 16.595 25.9958 17.454 26.1905C18.3131 26.3851 19.2084 26.078 19.7673 25.3971C20.5703 26.1469 21.7874 26.235 22.6899 25.6089C23.5928 24.9829 23.9367 23.812 23.5161 22.7973C24.3501 22.5127 24.9519 21.7815 25.0708 20.9081C25.1893 20.0349 24.8048 19.1695 24.0772 18.6725C23.3495 18.1756 22.4034 18.1321 21.633 18.5604L18.0135 15.8487C17.7555 15.6554 17.3897 15.708 17.1966 15.9659C17.0033 16.2239 17.0559 16.5897 17.3139 16.7828L21.2603 19.7393C21.3612 19.8149 21.4835 19.8555 21.6095 19.8555C21.7487 19.8504 21.8811 19.7951 21.9829 19.7L21.9933 19.7126C22.0256 19.6851 22.0574 19.6579 22.0945 19.6322C22.4365 19.3855 22.8854 19.3425 23.2683 19.5203C23.651 19.6982 23.9079 20.0685 23.9402 20.4894C23.9722 20.9102 23.7749 21.3156 23.4235 21.5495C23.1661 21.7295 22.8464 21.7965 22.5383 21.7353C22.2691 21.6811 21.9983 21.8221 21.8886 22.0739C21.7788 22.3257 21.8598 22.62 22.0825 22.7805C22.1746 22.8486 22.2544 22.9319 22.3185 23.0267C22.6857 23.5562 22.554 24.2831 22.0245 24.6502C21.495 25.0177 20.7681 24.886 20.401 24.3565C20.3353 24.2638 20.2856 24.1605 20.2546 24.051C20.1788 23.7888 19.9347 23.6112 19.6618 23.62C19.3873 23.6339 19.1598 23.8374 19.1155 24.1087C19.0279 24.6313 18.5993 25.0294 18.0714 25.0777C17.5438 25.1263 17.0498 24.8131 16.8685 24.3148C16.6874 23.8168 16.8644 23.2593 17.3 22.9573C17.3387 22.9306 17.3803 22.9079 17.4215 22.8844C17.4359 22.8764 17.4439 22.8625 17.4575 22.8531C17.5526 22.7909 17.6255 22.6996 17.6653 22.593C17.68 22.5591 17.6912 22.5239 17.6989 22.4876C17.7104 22.4131 17.7099 22.3367 17.697 22.2622C17.6936 22.2459 17.6976 22.2299 17.6928 22.2133L16.3066 17.4818C16.2505 17.2786 16.0895 17.1216 15.885 17.0709C15.6807 17.0199 15.4647 17.0832 15.32 17.2364C15.1755 17.3894 15.1248 17.6087 15.1872 17.81L15.6091 19.2501H13.5642L13.9861 17.81C14.0494 17.6087 13.999 17.3889 13.8542 17.2354C13.7095 17.0816 13.4929 17.0183 13.2884 17.0693C13.0836 17.1206 12.9226 17.2781 12.867 17.4818L11.4803 22.2133C11.4755 22.2299 11.4795 22.2459 11.4761 22.2625C11.4633 22.337 11.4627 22.4131 11.4742 22.4878C11.4937 22.5968 11.5466 22.6969 11.6253 22.7746C11.6526 22.804 11.683 22.8302 11.7159 22.8531C11.7292 22.8625 11.7372 22.8764 11.7519 22.8844C11.7933 22.9084 11.835 22.9311 11.8723 22.9567C12.3084 23.2582 12.4862 23.8158 12.3055 24.3143C12.1247 24.8126 11.6307 25.1263 11.1028 25.0783C10.5748 25.0299 10.1457 24.6321 10.0581 24.1092C10.0138 23.8379 9.78631 23.6342 9.51181 23.62C9.23837 23.6094 8.99324 23.7877 8.91874 24.051C8.88776 24.1602 8.83809 24.2633 8.7724 24.356C8.53849 24.7076 8.13287 24.9055 7.71177 24.8735C7.29066 24.8412 6.91976 24.5837 6.74218 24.2006C6.56461 23.8174 6.60814 23.368 6.85567 23.0259C6.91976 22.9316 6.99907 22.8486 7.09066 22.781C7.31363 22.6205 7.39454 22.3263 7.28479 22.0745C7.17477 21.8227 6.90427 21.6814 6.63511 21.7356C6.16941 21.8261 5.69516 21.6256 5.43615 21.2283C5.17686 20.8306 5.18461 20.3158 5.45564 19.9262C5.82334 19.397 6.55019 19.2656 7.07998 19.633C7.11603 19.6581 7.14994 19.687 7.19026 19.7203C7.21322 19.735 7.23726 19.7481 7.26209 19.7591C7.28959 19.7772 7.31843 19.793 7.34861 19.8058C7.39614 19.824 7.44607 19.8357 7.49708 19.8402C7.51897 19.8466 7.5414 19.8517 7.56383 19.8557C7.57558 19.8557 7.5868 19.8509 7.59855 19.8501C7.61483 19.8491 7.62979 19.845 7.64608 19.8426C7.70109 19.8346 7.75476 19.8189 7.80523 19.7954C7.81965 19.7887 7.83273 19.7818 7.84662 19.774C7.86958 19.7639 7.89174 19.7524 7.91311 19.7396L11.8593 16.783C12.1175 16.5897 12.1698 16.2241 11.9768 15.9662C11.7837 15.708 11.4179 15.6556 11.1599 15.8487L7.5398 18.5609C6.76969 18.1331 5.82414 18.1769 5.09702 18.6739C4.36963 19.1711 3.98538 20.036 4.10421 20.9089C4.22277 21.7815 4.82385 22.5127 5.65751 22.7973C5.23668 23.8123 5.58088 24.9835 6.48397 25.6091C7.38706 26.2329 8.60231 26.1448 9.4058 25.3971V25.3971Z" fill="black" fill-opacity="0.5"/>
</g>
<defs>
<clipPath id="clip0">
<rect width="35" height="35" fill="white"/>
</clipPath>
</defs>
</svg>
