<svg width="55" height="55" viewBox="0 0 55 55" fill="none" xmlns="http://www.w3.org/2000/svg">
<rect width="55" height="55" rx="27.5" fill="#F9FFF9"/>
<path d="M43.981 16.221C43.9789 16.221 43.9767 16.2207 43.9746 16.2207H34.6777V15.1953C34.6777 13.4991 33.2977 12.1191 31.6016 12.1191H23.3984C21.7023 12.1191 20.3223 13.4991 20.3223 15.1953V16.2207H11.0254C10.4545 16.2207 10 16.6885 10 17.2461V39.8047C10 41.5009 11.38 42.8809 13.0762 42.8809H41.9238C43.62 42.8809 45 41.5009 45 39.8047V17.2677C45 17.2664 45 17.2651 45 17.2637C44.9607 16.5903 44.5466 16.2247 43.981 16.221ZM22.373 15.1953C22.373 14.63 22.8331 14.1699 23.3984 14.1699H31.6016C32.1669 14.1699 32.627 14.63 32.627 15.1953V16.2207H22.373V15.1953ZM42.5519 18.2715L39.3676 27.8242C39.2279 28.2437 38.837 28.5254 38.395 28.5254H32.627V27.5C32.627 26.9336 32.1679 26.4746 31.6016 26.4746H23.3984C22.8321 26.4746 22.373 26.9336 22.373 27.5V28.5254H16.605C16.163 28.5254 15.7721 28.2437 15.6324 27.8242L12.4481 18.2715H42.5519ZM30.5762 28.5254V30.5762H24.4238V28.5254H30.5762ZM42.9492 39.8047C42.9492 40.37 42.4891 40.8301 41.9238 40.8301H13.0762C12.5109 40.8301 12.0508 40.37 12.0508 39.8047V23.5648L13.6869 28.4728C14.1061 29.731 15.2789 30.5762 16.605 30.5762H22.373V31.6016C22.373 32.1679 22.8321 32.627 23.3984 32.627H31.6016C32.1679 32.627 32.627 32.1679 32.627 31.6016V30.5762H38.395C39.7211 30.5762 40.8939 29.731 41.3131 28.4728L42.9492 23.5648V39.8047Z" fill="black" fill-opacity="0.5"/>
</svg>
