<svg width="125" height="60" viewBox="0 0 125 60" fill="none" xmlns="http://www.w3.org/2000/svg">
<circle cx="33.5" cy="17.5" r="17.5" fill="#F1DBEE"/>
<path d="M31.115 24.508C30.5723 24.508 30.0957 24.464 29.685 24.376C29.2743 24.288 28.915 24.0753 28.607 23.738C28.3137 23.4007 28.167 22.88 28.167 22.176C28.167 21.1933 28.4603 19.8733 29.047 18.216C29.6483 16.5587 30.433 14.894 31.401 13.222C30.6677 13.266 30.0883 13.376 29.663 13.552C29.2377 13.728 28.959 13.9993 28.827 14.366C28.8857 14.366 28.9443 14.4393 29.003 14.586C29.0763 14.7327 29.113 14.8867 29.113 15.048C29.113 15.312 28.9957 15.5247 28.761 15.686C28.5263 15.8327 28.233 15.906 27.881 15.906C27.4703 15.906 27.1403 15.796 26.891 15.576C26.6417 15.356 26.517 15.0407 26.517 14.63C26.517 14.1313 26.7077 13.6767 27.089 13.266C27.485 12.8553 28.0277 12.5327 28.717 12.298C29.4063 12.0487 30.169 11.924 31.005 11.924C31.313 11.924 31.6943 11.946 32.149 11.99C33.3517 10.0833 34.6203 8.52867 35.955 7.326C37.3043 6.10867 38.5877 5.5 39.805 5.5C40.509 5.5 41.0883 5.60267 41.543 5.808L38.089 22H34.921L36.615 14.014C36.0723 13.7647 35.5737 13.5813 35.119 13.464C34.6643 13.3467 34.1803 13.266 33.667 13.222C32.831 15.026 32.1417 16.874 31.599 18.766C31.071 20.6433 30.807 22.1467 30.807 23.276C30.807 23.8333 30.9097 24.244 31.115 24.508ZM38.089 7.062C37.4583 7.39933 36.7983 8.03 36.109 8.954C35.4343 9.86333 34.7743 10.9707 34.129 12.276C35.185 12.4813 36.0797 12.738 36.813 13.046L38.089 7.062Z" fill="black"/>
<path d="M52.3047 11.7617C52.3047 11.4297 52.1875 11.1758 51.9531 11C51.7188 10.8203 51.2969 10.6328 50.6875 10.4375C50.0781 10.2383 49.5957 10.043 49.2402 9.85156C48.2715 9.32812 47.7871 8.62305 47.7871 7.73633C47.7871 7.27539 47.916 6.86523 48.1738 6.50586C48.4355 6.14258 48.8086 5.85938 49.293 5.65625C49.7812 5.45312 50.3281 5.35156 50.9336 5.35156C51.543 5.35156 52.0859 5.46289 52.5625 5.68555C53.0391 5.9043 53.4082 6.21484 53.6699 6.61719C53.9355 7.01953 54.0684 7.47656 54.0684 7.98828H52.3105C52.3105 7.59766 52.1875 7.29492 51.9414 7.08008C51.6953 6.86133 51.3496 6.75195 50.9043 6.75195C50.4746 6.75195 50.1406 6.84375 49.9023 7.02734C49.6641 7.20703 49.5449 7.44531 49.5449 7.74219C49.5449 8.01953 49.6836 8.25195 49.9609 8.43945C50.2422 8.62695 50.6543 8.80273 51.1973 8.9668C52.1973 9.26758 52.9258 9.64062 53.3828 10.0859C53.8398 10.5312 54.0684 11.0859 54.0684 11.75C54.0684 12.4883 53.7891 13.0684 53.2305 13.4902C52.6719 13.9082 51.9199 14.1172 50.9746 14.1172C50.3184 14.1172 49.7207 13.998 49.1816 13.7598C48.6426 13.5176 48.2305 13.1875 47.9453 12.7695C47.6641 12.3516 47.5234 11.8672 47.5234 11.3164H49.2871C49.2871 12.2578 49.8496 12.7285 50.9746 12.7285C51.3926 12.7285 51.7188 12.6445 51.9531 12.4766C52.1875 12.3047 52.3047 12.0664 52.3047 11.7617ZM61.6855 6.89258H59.0723V14H57.3145V6.89258H54.7363V5.46875H61.6855V6.89258ZM65.8516 10.877H64.4512V14H62.6934V5.46875H65.8633C66.8711 5.46875 67.6484 5.69336 68.1953 6.14258C68.7422 6.5918 69.0156 7.22656 69.0156 8.04688C69.0156 8.62891 68.8887 9.11523 68.6348 9.50586C68.3848 9.89258 68.0039 10.2012 67.4922 10.4316L69.3379 13.918V14H67.4512L65.8516 10.877ZM64.4512 9.45312H65.8691C66.3105 9.45312 66.6523 9.3418 66.8945 9.11914C67.1367 8.89258 67.2578 8.58203 67.2578 8.1875C67.2578 7.78516 67.1426 7.46875 66.9121 7.23828C66.6855 7.00781 66.3359 6.89258 65.8633 6.89258H64.4512V9.45312ZM77.3652 9.92773C77.3652 10.7676 77.2168 11.5039 76.9199 12.1367C76.623 12.7695 76.1973 13.2578 75.6426 13.6016C75.0918 13.9453 74.459 14.1172 73.7441 14.1172C73.0371 14.1172 72.4062 13.9473 71.8516 13.6074C71.2969 13.2676 70.8672 12.7832 70.5625 12.1543C70.2578 11.5215 70.1035 10.7949 70.0996 9.97461V9.55273C70.0996 8.71289 70.25 7.97461 70.5508 7.33789C70.8555 6.69727 71.2832 6.20703 71.834 5.86719C72.3887 5.52344 73.0215 5.35156 73.7324 5.35156C74.4434 5.35156 75.0742 5.52344 75.625 5.86719C76.1797 6.20703 76.6074 6.69727 76.9082 7.33789C77.2129 7.97461 77.3652 8.71094 77.3652 9.54688V9.92773ZM75.584 9.54102C75.584 8.64648 75.4238 7.9668 75.1035 7.50195C74.7832 7.03711 74.3262 6.80469 73.7324 6.80469C73.1426 6.80469 72.6875 7.03516 72.3672 7.49609C72.0469 7.95312 71.8848 8.625 71.8809 9.51172V9.92773C71.8809 10.7988 72.041 11.4746 72.3613 11.9551C72.6816 12.4355 73.1426 12.6758 73.7441 12.6758C74.334 12.6758 74.7871 12.4453 75.1035 11.9844C75.4199 11.5195 75.5801 10.8438 75.584 9.95703V9.54102Z" fill="black"/>
</svg>
