<svg width="35" height="35" viewBox="0 0 35 35" fill="none" xmlns="http://www.w3.org/2000/svg">
<path d="M15.2169 13.5712C15.1036 13.397 14.9098 13.2919 14.702 13.2919H9.23279V11.9996C9.23279 11.4934 8.82252 11.0832 8.31638 11.0832C7.81024 11.0832 7.39997 11.4934 7.39997 11.9996V17.5777H1.9305C1.72269 17.5777 1.52897 17.6828 1.41563 17.8571L0.430486 19.3717C0.391579 19.4315 0.391579 19.5086 0.430486 19.5685L1.41563 21.0832C1.52897 21.2575 1.72269 21.3625 1.9305 21.3625H7.39985V33.1672H5.69505C5.18891 33.1672 4.77864 33.5775 4.77864 34.0836C4.77864 34.5898 5.18891 35 5.69505 35H10.9376C11.4437 35 11.854 34.5898 11.854 34.0836C11.854 33.5775 11.4437 33.1672 10.9376 33.1672H9.23279V17.0765H14.702C14.9098 17.0765 15.1036 16.9714 15.2169 16.7971L16.202 15.2824C16.2409 15.2227 16.2409 15.1456 16.202 15.0857L15.2169 13.5712Z" fill="black" fill-opacity="0.5"/>
<path d="M26.3555 7.39697C27.8404 7.39697 29.0441 6.19326 29.0441 4.70842C29.0441 3.22358 27.8404 2.01988 26.3555 2.01988C24.8707 2.01988 23.667 3.22358 23.667 4.70842C23.667 6.19326 24.8707 7.39697 26.3555 7.39697Z" fill="black" fill-opacity="0.5"/>
<path d="M29.8267 8.56943C28.7029 8.56943 24.9371 8.56943 23.8312 8.56943L20.9905 8.23732L22.5196 6.40019C22.9779 5.84955 22.9031 5.03157 22.3525 4.57319C21.8017 4.11493 20.9838 4.18983 20.5256 4.74035L17.465 8.41788C17.1605 8.78377 17.0808 9.287 17.2574 9.72907C17.434 10.171 17.8386 10.4808 18.3113 10.5362L22.8882 11.0714L22.8888 33.4434C22.8888 34.3032 23.5857 35 24.4454 35C25.3051 35 26.002 34.3032 26.002 33.4434V21.0009H26.6742V33.4434C26.6742 34.3032 27.3711 35 28.2308 35C29.0905 35 29.7874 34.3032 29.7874 33.4434L29.7598 11.6468C29.7597 11.4988 29.8782 11.378 30.0261 11.3753C30.1742 11.3726 30.2971 11.4889 30.3022 11.6368V11.6369L30.3501 21.167C30.3537 21.8812 30.9337 22.4577 31.6472 22.4577C31.6493 22.4577 31.6516 22.4576 31.6538 22.4576C32.3702 22.454 32.948 21.8703 32.9445 21.1539L32.8966 11.6237C32.888 9.93956 31.5109 8.56943 29.8267 8.56943Z" fill="black" fill-opacity="0.5"/>
<path d="M33.0896 4.00731H31.9703V5.19141H33.0896V4.00731Z" fill="black" fill-opacity="0.5"/>
<path d="M33.0245 0C32.362 0 31.7703 0.316498 31.5083 0.931322L32.382 1.55232C32.4816 1.43641 32.617 1.10466 32.9741 1.10466C33.1917 1.10466 33.4073 1.23174 33.4073 1.46565C33.4073 1.87289 32.7256 2.14711 32.5192 2.25987C31.9998 2.52965 31.9487 2.89566 31.9487 3.32131H33.068C33.068 3.15729 33.2171 3.05024 33.3892 2.95309C33.8821 2.67503 34.5986 2.48469 34.5986 1.47299C34.5985 0.502529 33.8885 0 33.0245 0Z" fill="black" fill-opacity="0.5"/>
</svg>
