<svg width="35" height="31" viewBox="0 0 35 31" fill="none" xmlns="http://www.w3.org/2000/svg">
<path d="M34.9509 17.5414C34.9508 17.5412 34.9508 17.5411 34.9507 17.5409L28.3426 0.446357C28.2023 0.0831419 27.8027 -0.0941746 27.4502 0.0503153C27.4499 0.0504038 27.4497 0.0504923 27.4494 0.0506692L0.641027 11.0485C0.531699 11.0972 0.436884 11.1749 0.366203 11.2736C0.143252 11.393 0.00240471 11.6292 0 11.888V30.2921C0 30.6831 0.307631 31 0.68706 31H29.5436C29.923 31 30.2306 30.6831 30.2306 30.2921V20.2407L34.5674 18.4611C34.9198 18.3163 35.0915 17.9045 34.9509 17.5414ZM28.8565 29.5843H1.37412V12.5959H28.8565V29.5843ZM11.4636 11.1837L22.9677 6.46096C23.9945 7.57282 25.4171 8.20475 26.9066 8.21077L28.054 11.1837H11.4636ZM30.2306 18.7202V11.888C30.2306 11.4971 29.923 11.1802 29.5436 11.1802H29.5326L28.0767 7.41302C28.0606 7.38161 28.0418 7.3517 28.0204 7.32383C27.9467 6.98291 27.6402 6.75029 27.3024 6.77878C25.9164 6.90894 24.5606 6.30744 23.7001 5.18046C23.486 4.9082 23.1097 4.84051 22.8186 5.0219C22.786 5.02588 22.7536 5.03208 22.7218 5.0403L8.67688 10.8022C8.50692 10.8709 8.37097 11.007 8.29968 11.1802H4.03442L27.3203 1.62776L33.4207 17.4093L30.2306 18.7202Z" fill="black" fill-opacity="0.5"/>
<path d="M3.23881 24.8056C4.57273 25.2118 5.61655 26.2859 6.01247 27.6597C6.09929 27.9595 6.36699 28.165 6.67067 28.1651C6.70631 28.1628 6.74169 28.1573 6.77648 28.1488C6.80731 28.1578 6.83883 28.1644 6.8706 28.1686H23.36C23.3884 28.1648 23.4164 28.1589 23.4439 28.1509C23.7871 28.2369 24.1331 28.02 24.2166 27.6664C24.2169 27.6651 24.2172 27.6638 24.2175 27.6625C24.6124 26.2873 25.6564 25.2117 26.9911 24.8049C27.3148 24.703 27.516 24.3706 27.4625 24.0263C27.4717 23.9919 27.4783 23.9569 27.4824 23.9215V18.2587C27.4784 18.2232 27.4715 18.1882 27.4618 18.1539C27.5156 17.8095 27.3144 17.477 26.9905 17.3753C25.6557 16.9686 24.6119 15.8925 24.2182 14.517C24.1187 14.1812 23.793 13.9735 23.4569 14.0314C23.4251 14.0223 23.3928 14.0157 23.36 14.0116H6.8706C6.83599 14.0158 6.80173 14.0229 6.76823 14.0328C6.43406 13.978 6.11166 14.1851 6.01247 14.5184C5.61732 15.8933 4.57342 16.9686 3.23881 17.3753C2.91512 17.4772 2.71398 17.8096 2.76748 18.1539C2.75855 18.1884 2.75211 18.2233 2.74825 18.2587V23.9215C2.7522 23.9548 2.75864 23.9877 2.76748 24.0199C2.71114 24.3665 2.91271 24.7025 3.23881 24.8056ZM4.12236 18.5461C5.50198 17.9752 6.59544 16.8487 7.14955 15.4273H23.0804C23.6348 16.8487 24.7285 17.9752 26.1083 18.5461V23.6341C24.7291 24.2056 23.6358 25.332 23.0811 26.7529H7.14955C6.59484 25.332 5.50155 24.2056 4.12236 23.6341V18.5461Z" fill="black" fill-opacity="0.5"/>
<path d="M15.1153 25.3372C17.3921 25.3372 19.2377 23.4357 19.2377 21.0901C19.2377 18.7444 17.3921 16.843 15.1153 16.843C12.8386 16.843 10.993 18.7444 10.993 21.0901C10.9952 23.4348 12.8395 25.3349 15.1153 25.3372ZM15.1153 18.2587C16.6331 18.2587 17.8635 19.5264 17.8635 21.0901C17.8635 22.6538 16.6331 23.9215 15.1153 23.9215C13.5975 23.9215 12.3671 22.6538 12.3671 21.0901C12.3671 19.5264 13.5975 18.2587 15.1153 18.2587Z" fill="black" fill-opacity="0.5"/>
<path d="M7.55767 22.1519C8.12681 22.1519 8.58826 21.6765 8.58826 21.0901C8.58826 20.5037 8.12681 20.0283 7.55767 20.0283C6.98852 20.0283 6.52708 20.5037 6.52708 21.0901C6.52708 21.6765 6.98852 22.1519 7.55767 22.1519ZM7.55767 20.7362C7.74738 20.7362 7.9012 20.8946 7.9012 21.0901C7.9012 21.2855 7.74738 21.444 7.55767 21.444C7.36795 21.444 7.21414 21.2855 7.21414 21.0901C7.21414 20.8946 7.36795 20.7362 7.55767 20.7362Z" fill="black" fill-opacity="0.5"/>
<path d="M22.673 22.1519C23.2421 22.1519 23.7036 21.6765 23.7036 21.0901C23.7036 20.5037 23.2421 20.0283 22.673 20.0283C22.1038 20.0283 21.6424 20.5037 21.6424 21.0901C21.6424 21.6765 22.1038 22.1519 22.673 22.1519ZM22.673 20.7362C22.8627 20.7362 23.0165 20.8946 23.0165 21.0901C23.0165 21.2855 22.8627 21.444 22.673 21.444C22.4833 21.444 22.3294 21.2855 22.3294 21.0901C22.3294 20.8946 22.4833 20.7362 22.673 20.7362Z" fill="black" fill-opacity="0.5"/>
</svg>
