<svg width="40" height="40" viewBox="0 0 40 40" fill="none" xmlns="http://www.w3.org/2000/svg">
<g clip-path="url(#clip0)">
<path d="M14.0801 39.8362C6.31641 39.8362 0 33.5198 0 25.7561C0 17.9924 6.31641 11.6764 14.0801 11.6764C21.8437 11.6764 28.1602 17.9924 28.1602 25.7561C28.1602 33.5198 21.8437 39.8362 14.0801 39.8362ZM14.0801 12.9563C7.02209 12.9563 1.27991 18.6981 1.27991 25.7561C1.27991 32.8145 7.02209 38.5563 14.0801 38.5563C21.1381 38.5563 26.8799 32.8145 26.8799 25.7561C26.8799 18.6981 21.1381 12.9563 14.0801 12.9563Z" fill="black" fill-opacity="0.5"/>
<path d="M9.59985 19.9963C9.59985 20.7031 9.0271 21.2762 8.31995 21.2762C7.61316 21.2762 7.04004 20.7031 7.04004 19.9963C7.04004 19.2892 7.61316 18.7164 8.31995 18.7164C9.0271 18.7164 9.59985 19.2892 9.59985 19.9963Z" fill="black" fill-opacity="0.5"/>
<path d="M21.1201 19.9963C21.1201 20.7031 20.547 21.2762 19.8398 21.2762C19.1331 21.2762 18.5599 20.7031 18.5599 19.9963C18.5599 19.2892 19.1331 18.7164 19.8398 18.7164C20.547 18.7164 21.1201 19.2892 21.1201 19.9963Z" fill="black" fill-opacity="0.5"/>
<path d="M31.9998 26.3962C31.1568 26.3962 30.3317 26.0549 29.7363 25.4606C29.1401 24.8563 28.7999 24.032 28.7999 23.1963C28.7999 22.3606 29.1401 21.5363 29.733 20.9357C30.3398 20.3362 31.1641 19.9963 31.9998 19.9963C32.8355 19.9963 33.6598 20.3362 34.2604 20.9294C34.8599 21.5374 35.1998 22.3613 35.1998 23.1963C35.1998 24.0312 34.8599 24.8549 34.2667 25.4569C34.0894 25.625 33.9363 25.7499 33.7818 25.8557C33.5932 25.9762 33.4119 26.0707 33.2255 26.1479C33.0237 26.2325 32.8194 26.2948 32.6198 26.3336C32.3986 26.3757 32.1961 26.3962 31.9998 26.3962ZM31.9998 21.2762C31.4981 21.2762 31.0019 21.4817 30.6379 21.8406C30.2856 22.198 30.0798 22.6942 30.0798 23.1963C30.0798 23.698 30.2856 24.1942 30.6441 24.5582C30.9979 24.9112 31.4937 25.1163 31.9998 25.1163C32.1148 25.1163 32.2386 25.1031 32.3792 25.0764C32.4916 25.0548 32.6106 25.0182 32.7322 24.9669C32.8523 24.9167 32.9673 24.8567 33.0772 24.7875C33.1717 24.7219 33.2742 24.6344 33.3716 24.5417C33.7144 24.1942 33.9199 23.6976 33.9199 23.1963C33.9199 22.6949 33.7144 22.198 33.3555 21.8343C32.9981 21.4817 32.5019 21.2762 31.9998 21.2762Z" fill="black" fill-opacity="0.5"/>
<path d="M17.28 27.6761H10.8801C10.5264 27.6761 10.24 27.3901 10.24 27.0364C10.24 26.6826 10.5264 26.3962 10.8801 26.3962H17.28C17.6338 26.3962 17.9202 26.6826 17.9202 27.0364C17.9202 27.3901 17.6338 27.6761 17.28 27.6761Z" fill="black" fill-opacity="0.5"/>
<path d="M31.9999 19.3562C30.2358 19.3562 28.7999 17.9207 28.7999 16.1563V12.9563C28.7999 11.1919 30.2358 9.75635 31.9999 9.75635C32.8824 9.75635 33.5999 9.03894 33.5999 8.15637C33.5999 7.2738 32.8824 6.5564 31.9999 6.5564C31.1173 6.5564 30.3999 7.2738 30.3999 8.15637C30.3999 9.92041 28.9644 11.3563 27.2 11.3563C25.4355 11.3563 24 9.92041 24 8.15637C24 3.745 27.5889 0.156128 31.9999 0.156128C36.4113 0.156128 40.0001 3.745 40.0001 8.15637C40.0001 11.3314 38.0889 14.2227 35.1998 15.4879V16.1563C35.1998 17.9207 33.7643 19.3562 31.9999 19.3562ZM31.9999 5.27612C33.5881 5.27612 34.8801 6.56812 34.8801 8.15637C34.8801 9.74426 33.5881 11.0363 31.9999 11.0363C30.9412 11.0363 30.0798 11.8976 30.0798 12.9563V16.1563C30.0798 17.215 30.9412 18.0763 31.9999 18.0763C33.0586 18.0763 33.9199 17.215 33.9199 16.1563V15.0569C33.9199 14.7896 34.0862 14.55 34.3367 14.457C36.9587 13.4811 38.7198 10.9495 38.7198 8.15637C38.7198 4.45068 35.7056 1.4364 31.9999 1.4364C28.2946 1.4364 25.2799 4.45068 25.2799 8.15637C25.2799 9.21509 26.1412 10.0764 27.2 10.0764C28.2587 10.0764 29.12 9.21509 29.12 8.15637C29.12 6.56812 30.412 5.27612 31.9999 5.27612Z" fill="black" fill-opacity="0.5"/>
</g>
<defs>
<clipPath id="clip0">
<rect width="40" height="40" fill="white"/>
</clipPath>
</defs>
</svg>
