<svg width="33" height="33" viewBox="0 0 33 33" fill="none" xmlns="http://www.w3.org/2000/svg">
<g clip-path="url(#clip0)" filter="url(#filter0_d)">
<path d="M14.6967 20.0477C14.5786 20.2741 14.4409 20.4955 14.2933 20.7021C14.0866 20.9924 13.8603 21.2581 13.6093 21.5091C12.4531 22.6653 10.849 23.3689 9.05806 23.3394C9.05314 22.9704 9.08758 22.6063 9.14171 22.2569C8.19701 22.7982 7.09979 23.1032 5.914 23.0836C5.89924 21.8978 6.20429 20.8005 6.74061 19.8558C6.39127 19.91 6.02716 19.9444 5.65814 19.9346C5.62862 17.7647 6.67172 15.8556 8.29542 14.6994C8.50207 14.5518 8.72348 14.414 8.94982 14.2959C8.9449 14.3205 8.93998 14.35 8.93506 14.3746C9.49597 14.4484 10.047 14.596 10.5784 14.8175C10.9278 14.9601 11.2624 15.1323 11.5871 15.339C11.9955 15.5949 12.3793 15.8999 12.7335 16.2542C13.0878 16.6084 13.3879 16.9922 13.6438 17.4006C13.8504 17.7253 14.0276 18.0599 14.1702 18.4093C14.3917 18.9407 14.5393 19.4917 14.6131 20.0526C14.6475 20.0576 14.6721 20.0526 14.6967 20.0477Z" fill="#F6B44B"/>
<path d="M14.1751 18.4191C13.9439 19.29 13.4912 20.0871 12.8417 20.7366C12.1283 21.45 11.2377 21.9273 10.2684 22.1339L10.5686 20.1855L8.60045 21.3073C8.14286 21.573 7.64591 21.76 7.12436 21.8731C7.23753 21.3565 7.42942 20.8596 7.6902 20.3971L8.81202 18.4289L6.86359 18.7291C7.07024 17.7598 7.54751 16.8692 8.26095 16.1558C8.91043 15.5063 9.70752 15.0536 10.5784 14.8224C10.9277 14.9651 11.2623 15.1373 11.5871 15.3439C11.9955 15.5998 12.3792 15.9048 12.7335 16.2591C13.0878 16.6134 13.3879 16.9971 13.6437 17.4055C13.8553 17.7352 14.0325 18.0698 14.1751 18.4191Z" fill="#FFD05C"/>
<path d="M13.875 24.9975C14.003 24.8893 14.1358 24.7712 14.2588 24.6433C15.4938 23.4083 16.1679 21.8289 16.286 20.2101C16.4336 18.2518 15.7595 16.2394 14.2588 14.7387C12.7581 13.238 10.7506 12.564 8.78744 12.7116C7.17359 12.8297 5.58925 13.5037 4.35426 14.7387C4.23125 14.8617 4.11317 14.9946 4 15.1225C4.23617 13.238 5.07262 11.4126 6.51919 9.96605C7.87227 8.61297 9.55009 7.79128 11.2968 7.49607C14.0226 7.03848 16.9207 7.86017 19.0266 9.96605C21.1275 12.067 21.9541 14.97 21.4966 17.6958C21.2013 19.4474 20.3796 21.1253 19.0266 22.4734C17.5849 23.9249 15.7595 24.7614 13.875 24.9975Z" fill="#41596B"/>
<path d="M21.5015 17.7008C19.927 18.7881 18.1754 19.6492 16.2909 20.215C16.4385 18.2567 15.7644 16.2443 14.2637 14.7437C12.763 13.243 10.7556 12.5689 8.79236 12.7165C9.35819 10.8271 10.2192 9.07548 11.3066 7.50591C14.0325 7.04832 16.9305 7.87001 19.0364 9.97589C21.1325 12.0719 21.9591 14.9749 21.5015 17.7008Z" fill="#334A5E"/>
<path d="M14.6229 20.0625C14.495 19.1325 14.1752 18.2272 13.6536 17.4104C13.3978 17.0021 13.0927 16.6183 12.7385 16.264C12.3842 15.9097 12.0004 15.6047 11.592 15.3488C10.7753 14.8273 9.86994 14.5075 8.94 14.3795C10.4062 7.32876 15.9809 1.77868 23.0514 0.356717C24.2077 0.125464 25.4033 0.00245667 26.6334 0.00245667H29V2.36912C29 3.59427 28.877 4.79482 28.6458 5.95108C27.2238 13.0215 21.6737 18.5962 14.6229 20.0625Z" fill="#F2705B"/>
<path d="M23.5631 5.43938C22.0181 3.89441 19.5137 3.89441 17.9687 5.43938C17.1962 6.21187 16.8075 7.22545 16.8124 8.23903C16.8173 9.24769 17.2011 10.2613 17.9687 11.0288C18.7363 11.7964 19.7449 12.1851 20.7536 12.19C21.7721 12.1949 22.7857 11.8062 23.5581 11.0288C25.108 9.48878 25.108 6.98435 23.5631 5.43938Z" fill="white"/>
<path d="M20.7683 10.8665C22.2222 10.8665 23.4007 9.68791 23.4007 8.2341C23.4007 6.78029 22.2222 5.60175 20.7683 5.60175C19.3145 5.60175 18.136 6.78029 18.136 8.2341C18.136 9.68791 19.3145 10.8665 20.7683 10.8665Z" fill="#89D6F7"/>
<path d="M16.2466 12.7559C13.6142 13.6809 10.7309 16.5642 9.81085 19.1916C12.4383 18.2666 15.3216 15.3882 16.2466 12.7559Z" fill="#41596B"/>
<path d="M28.6458 5.95109L23.0514 0.356717C24.2077 0.125464 25.4033 0.00245667 26.6334 0.00245667H29V2.36912C29 3.59427 28.877 4.79482 28.6458 5.95109Z" fill="#334A5E"/>
</g>
<defs>
<filter id="filter0_d" x="0" y="0" width="33" height="33" filterUnits="userSpaceOnUse" color-interpolation-filters="sRGB">
<feFlood flood-opacity="0" result="BackgroundImageFix"/>
<feColorMatrix in="SourceAlpha" type="matrix" values="0 0 0 0 0 0 0 0 0 0 0 0 0 0 0 0 0 0 127 0"/>
<feOffset dy="4"/>
<feGaussianBlur stdDeviation="2"/>
<feColorMatrix type="matrix" values="0 0 0 0 0 0 0 0 0 0 0 0 0 0 0 0 0 0 0.25 0"/>
<feBlend mode="normal" in2="BackgroundImageFix" result="effect1_dropShadow"/>
<feBlend mode="normal" in="SourceGraphic" in2="effect1_dropShadow" result="shape"/>
</filter>
<clipPath id="clip0">
<rect width="25" height="25" fill="white" transform="translate(4)"/>
</clipPath>
</defs>
</svg>
