<svg width="35" height="35" viewBox="0 0 35 35" fill="none" xmlns="http://www.w3.org/2000/svg">
<path d="M17.2506 16.8596C19.5668 16.8596 21.5722 16.0289 23.2112 14.3899C24.8497 12.7511 25.6807 10.746 25.6807 8.42955C25.6807 6.11388 24.8499 4.1085 23.2109 2.46921C21.5719 0.830725 19.5665 0 17.2506 0C14.9341 0 12.929 0.830725 11.2902 2.46948C9.65149 4.10823 8.8205 6.11361 8.8205 8.42955C8.8205 10.746 9.65149 12.7514 11.2902 14.3902C12.9295 16.0286 14.9349 16.8596 17.2506 16.8596ZM12.7407 3.91971C13.9982 2.66227 15.4732 2.05104 17.2506 2.05104C19.0277 2.05104 20.503 2.66227 21.7607 3.91971C23.0181 5.17741 23.6296 6.65274 23.6296 8.42955C23.6296 10.2069 23.0181 11.682 21.7607 12.9397C20.503 14.1974 19.0277 14.8086 17.2506 14.8086C15.4738 14.8086 13.9987 14.1971 12.7407 12.9397C11.483 11.6822 10.8715 10.2069 10.8715 8.42955C10.8715 6.65274 11.483 5.17741 12.7407 3.91971Z" fill="black" fill-opacity="0.5"/>
<path d="M32.0009 26.9132C31.9537 26.2313 31.8581 25.4873 31.7174 24.7017C31.5753 23.9102 31.3924 23.162 31.1734 22.4782C30.947 21.7714 30.6396 21.0733 30.2591 20.4044C29.8647 19.7102 29.4012 19.1056 28.881 18.6081C28.337 18.0877 27.6711 17.6693 26.901 17.3641C26.1335 17.0604 25.283 16.9066 24.3733 16.9066C24.016 16.9066 23.6705 17.0532 23.0032 17.4877C22.5925 17.7555 22.1121 18.0653 21.5759 18.4079C21.1174 18.7 20.4963 18.9737 19.7291 19.2215C18.9806 19.4637 18.2207 19.5865 17.4703 19.5865C16.7205 19.5865 15.9606 19.4637 15.2115 19.2215C14.4452 18.974 13.8238 18.7003 13.3661 18.4081C12.835 18.0687 12.3543 17.759 11.9375 17.4874C11.2707 17.053 10.9252 16.9064 10.5679 16.9064C9.65789 16.9064 8.80767 17.0604 8.04049 17.3643C7.27092 17.669 6.60468 18.0874 6.06021 18.6084C5.54004 19.1061 5.07648 19.7104 4.68235 20.4044C4.30237 21.0733 3.99475 21.7711 3.76831 22.4784C3.54961 23.1623 3.3667 23.9102 3.22464 24.7017C3.08365 25.4862 2.98832 26.2305 2.94106 26.9141C2.89459 27.5824 2.87109 28.278 2.87109 28.9808C2.87109 30.8079 3.45188 32.2869 4.59716 33.3777C5.7283 34.4541 7.22472 34.9999 9.04506 34.9999H25.8977C27.7175 34.9999 29.214 34.4541 30.3454 33.3777C31.4909 32.2877 32.0717 30.8081 32.0717 28.9806C32.0714 28.2754 32.0477 27.5798 32.0009 26.9132ZM28.9312 31.8917C28.1838 32.6031 27.1915 32.9489 25.8975 32.9489H9.04506C7.75077 32.9489 6.75849 32.6031 6.01135 31.892C5.27835 31.1942 4.92214 30.2418 4.92214 28.9808C4.92214 28.325 4.94377 27.6775 4.98703 27.0558C5.02922 26.4459 5.11547 25.776 5.24337 25.0641C5.36968 24.361 5.53043 23.7012 5.72162 23.1038C5.90507 22.531 6.15528 21.9639 6.46556 21.4175C6.7617 20.8968 7.10242 20.4501 7.4784 20.0901C7.83008 19.7534 8.27334 19.4778 8.79565 19.2712C9.27871 19.08 9.82157 18.9753 10.4109 18.9595C10.4827 18.9977 10.6106 19.0706 10.8179 19.2057C11.2395 19.4805 11.7255 19.794 12.2627 20.1371C12.8684 20.5233 13.6486 20.872 14.5808 21.1729C15.5338 21.4811 16.5058 21.6376 17.4706 21.6376C18.4354 21.6376 19.4076 21.4811 20.3601 21.1732C21.2931 20.8717 22.0731 20.5233 22.6795 20.1366C23.2293 19.7852 23.7017 19.4808 24.1233 19.2057C24.3306 19.0709 24.4585 18.9977 24.5303 18.9595C25.1199 18.9753 25.6628 19.08 26.1461 19.2712C26.6681 19.4778 27.1114 19.7537 27.4631 20.0901C27.839 20.4498 28.1798 20.8966 28.4759 21.4178C28.7865 21.9639 29.0369 22.5313 29.2201 23.1036C29.4116 23.7017 29.5726 24.3613 29.6986 25.0638C29.8263 25.777 29.9128 26.4473 29.955 27.0561V27.0566C29.9985 27.6759 30.0204 28.3232 30.0207 28.9808C30.0204 30.242 29.6642 31.1942 28.9312 31.8917Z" fill="black" fill-opacity="0.5"/>
</svg>
